<svg xmlns="http://www.w3.org/2000/svg" xmlns:xlink="http://www.w3.org/1999/xlink" width="165" height="40" viewBox="0 0 165 40">
  <defs>
    <clipPath id="clip-path">
      <rect id="Rectangle_78" data-name="Rectangle 78" width="165" height="40" fill="none"/>
    </clipPath>
  </defs>
  <g id="Group_60" data-name="Group 60" clip-path="url(#clip-path)">
    <path id="Path_749" data-name="Path 749" d="M4.011,47.438q-.684,0-1.475-.009T1.061,47.42v.288q.4.072.738.162a1.263,1.263,0,0,1,.593.351,1.728,1.728,0,0,1,.387.764,5.59,5.59,0,0,1,.135,1.385v7.787a19.915,19.915,0,0,1-.1,2.158,6.962,6.962,0,0,1-.3,1.457,2.85,2.85,0,0,1-.459.89,1.619,1.619,0,0,1-.584.459,2.235,2.235,0,0,1-.692.18c-.246.024-.507.036-.783.036v.27a2.665,2.665,0,0,0,.611.216,2.778,2.778,0,0,0,.594.072,4.678,4.678,0,0,0,1.16-.171,2.867,2.867,0,0,0,1.25-.738,4.364,4.364,0,0,0,1-1.627,8.151,8.151,0,0,0,.4-2.841V50.369a5.588,5.588,0,0,1,.135-1.385,1.792,1.792,0,0,1,.378-.764,1.2,1.2,0,0,1,.585-.351q.341-.09.755-.162V47.42q-.684,0-1.43.009t-1.43.009" transform="translate(0 -35.607)" fill="#040504"/>
    <path id="Path_750" data-name="Path 750" d="M46.708,59.031a3.9,3.9,0,0,1-.494-.782q-.225-.458-.495-1.052-.648-1.439-1.232-2.761t-1.178-2.671q-.594-1.348-1.214-2.787t-1.3-3.147l-.612.036q-.63,1.385-1.3,2.823t-1.34,2.823q-.666,1.385-1.277,2.634t-1.106,2.23q-.5.981-.837,1.628t-.45.827a2.764,2.764,0,0,1-.522.585,2.034,2.034,0,0,1-1.079.369v.288q.683-.018,1.457-.027t1.511-.009h.647q.27,0,.522.009l.539.018q.287.009.7.009v-.324a3.985,3.985,0,0,1-.863-.108,1.606,1.606,0,0,1-.539-.234.806.806,0,0,1-.279-.333,1.02,1.02,0,0,1-.081-.4,1.856,1.856,0,0,1,.081-.512,6.01,6.01,0,0,1,.261-.693q.179-.413.458-.989l.439-.9a.819.819,0,0,1,.315-.415.877.877,0,0,1,.389-.07c.168,0,.32,0,.32,0h3.976a1.111,1.111,0,0,1,.309.075.449.449,0,0,1,.182.222l.546,1.267q.278.648.467,1.079t.279.683a1.263,1.263,0,0,1,.09.36,1.667,1.667,0,0,1-.036.36.536.536,0,0,1-.18.288,1.205,1.205,0,0,1-.414.216,2.736,2.736,0,0,1-.738.108v.324q.4,0,.657-.009l.485-.018c.15-.006.309-.009.477-.009h.647q.81,0,1.628.009t1.61.027v-.324a2.026,2.026,0,0,1-.819-.216,2.061,2.061,0,0,1-.6-.5M41.8,53.776a.371.371,0,0,1-.286.094H38.325a.348.348,0,0,1-.209-.071c-.08-.068-.052-.211.077-.49.216-.466.45-.97.7-1.515.321-.7.972-2.22.995-2.266s.09-.175.162-.175.142.118.171.2c.036.1.593,1.508.876,2.216.262.654.579,1.42.656,1.61s.106.326.048.4" transform="translate(-24.224 -34.414)" fill="#040504"/>
    <path id="Path_751" data-name="Path 751" d="M385.757,59.751a2.025,2.025,0,0,1-.819-.216,2.061,2.061,0,0,1-.6-.5,3.9,3.9,0,0,1-.494-.782q-.225-.458-.495-1.052-.648-1.439-1.232-2.761t-1.178-2.671q-.594-1.348-1.214-2.787t-1.3-3.147l-.612.036q-.63,1.385-1.3,2.823t-1.34,2.823q-.666,1.385-1.277,2.634t-1.106,2.23q-.5.981-.836,1.628t-.449.827a2.763,2.763,0,0,1-.522.585,2.033,2.033,0,0,1-1.079.369v.288q.683-.018,1.457-.027t1.511-.009h.647q.269,0,.522.009l.539.018q.287.009.7.009v-.324a3.985,3.985,0,0,1-.863-.108,1.607,1.607,0,0,1-.54-.234.807.807,0,0,1-.279-.333,1.022,1.022,0,0,1-.081-.4,1.86,1.86,0,0,1,.081-.512,6.034,6.034,0,0,1,.261-.693q.179-.413.458-.989l.439-.9a.819.819,0,0,1,.315-.415.877.877,0,0,1,.389-.07c.168,0,.32,0,.32,0h3.976a1.111,1.111,0,0,1,.309.075.45.45,0,0,1,.182.222l.546,1.267q.279.648.467,1.079t.279.683a1.262,1.262,0,0,1,.09.36,1.664,1.664,0,0,1-.036.36.535.535,0,0,1-.18.288,1.205,1.205,0,0,1-.414.216,2.736,2.736,0,0,1-.738.108v.324q.4,0,.657-.009l.485-.018c.15-.006.309-.009.477-.009h.647q.81,0,1.628.009t1.61.027Zm-6.329-5.974a.371.371,0,0,1-.286.094h-3.189a.347.347,0,0,1-.209-.071c-.08-.068-.052-.211.077-.49.216-.466.45-.97.7-1.515.321-.7.972-2.22.994-2.266s.09-.175.162-.175.142.118.171.2c.036.1.593,1.508.876,2.216.262.654.579,1.42.656,1.61s.106.326.048.4" transform="translate(-277.719 -34.414)" fill="#040504"/>
    <path id="Path_752" data-name="Path 752" d="M119.214,58.181a1.636,1.636,0,0,1-.324-.639,5.606,5.606,0,0,1-.171-1.07l-1.043-12.084h-.414l-5.954,11.131L105.3,44.388h-.27l-1.187,12.084a5.284,5.284,0,0,1-.207,1.07,1.608,1.608,0,0,1-.368.639,1.414,1.414,0,0,1-.549.342,4.756,4.756,0,0,1-.729.18v.288q.683,0,1.286-.009t1.286-.009q.683,0,1.3.009t1.295.009V58.7a2.918,2.918,0,0,1-1.457-.593,1.676,1.676,0,0,1-.413-1.259v-.189a.947.947,0,0,1,.018-.189l.442-6.44.028-.416s0-.185.1-.21.169.154.169.154l.227.414,4.7,8.584.216-.054,4.51-8.869.175-.345s.076-.174.158-.157.09.207.09.207l.033.376.593,6.755a1.486,1.486,0,0,0,.009.171,1.622,1.622,0,0,1,.009.171,2.692,2.692,0,0,1-.135.944,1.214,1.214,0,0,1-.378.54,1.405,1.405,0,0,1-.567.261q-.324.072-.7.144v.288q.683,0,1.394-.009t1.394-.009q.683,0,1.331.009t1.331.009V58.7a4.176,4.176,0,0,1-.71-.18,1.212,1.212,0,0,1-.5-.342" transform="translate(-76.576 -33.33)" fill="#040504"/>
    <path id="Path_753" data-name="Path 753" d="M506.128,58.585a2.857,2.857,0,0,1-.746.557,3.749,3.749,0,0,1-1.106.351,10.036,10.036,0,0,1-1.691.117q-1.025,0-1.592-.054a1.58,1.58,0,0,1-.836-.27.9.9,0,0,1-.315-.638q-.045-.423-.045-1.178v-2.6a1.013,1.013,0,0,1,.136-.624,1.032,1.032,0,0,1,.72-.178h1.014q.647,0,1.133.027a3.285,3.285,0,0,1,.819.135,1.08,1.08,0,0,1,.513.324,1.172,1.172,0,0,1,.234.594h.252q-.018-.666-.018-1.043v-1.34q0-.422.018-1.106h-.252a1.222,1.222,0,0,1-.216.647,1.024,1.024,0,0,1-.5.342,2.971,2.971,0,0,1-.819.126q-.495.018-1.16.018h-.823c-.522,0-.745-.073-.872-.208a2.3,2.3,0,0,1-.178-1.222c0-.563,0-1.3,0-1.3a5.421,5.421,0,0,1,.09-1.124.965.965,0,0,1,.387-.611,1.726,1.726,0,0,1,.845-.252q.548-.045,1.466-.045a4.83,4.83,0,0,1,1.376.162,2.426,2.426,0,0,1,.854.432,2.03,2.03,0,0,1,.513.638q.189.369.369.8l.2-.018q-.018-.341-.036-.782t-.018-.8q0-.4.027-.863t.081-.827q-.324.054-.764.09t-1.061.054q-.621.018-1.448.027t-1.906.009h-2.429q-.665,0-1.3-.009t-1.142-.009v.288a2.9,2.9,0,0,1,.962.252,1.311,1.311,0,0,1,.54.495,1.958,1.958,0,0,1,.243.791,10.17,10.17,0,0,1,.054,1.124v7.984a10.17,10.17,0,0,1-.054,1.124,2.036,2.036,0,0,1-.243.8,1.349,1.349,0,0,1-.54.512,2.727,2.727,0,0,1-.962.261v.252q.558-.018,1.224-.027l1.367-.018q.7-.009,1.367-.009h1.223q1.78,0,2.95.027a12.056,12.056,0,0,1,1.925.171q.054-.324.153-.711t.216-.791q.117-.4.27-.791a7.385,7.385,0,0,1,.332-.728l-.18-.108a6.981,6.981,0,0,1-.611.755" transform="translate(-372.322 -35.119)" fill="#040504"/>
    <path id="Path_754" data-name="Path 754" d="M197.627,58.585a2.857,2.857,0,0,1-.747.557,3.746,3.746,0,0,1-1.106.351,10.036,10.036,0,0,1-1.691.117q-1.025,0-1.592-.054a1.58,1.58,0,0,1-.837-.27.9.9,0,0,1-.314-.638,11.763,11.763,0,0,1-.045-1.178v-2.6a1.014,1.014,0,0,1,.136-.624,1.032,1.032,0,0,1,.72-.178h1.014q.647,0,1.133.027a3.285,3.285,0,0,1,.819.135,1.081,1.081,0,0,1,.513.324,1.172,1.172,0,0,1,.234.594h.252q-.018-.666-.018-1.043v-1.34q0-.422.018-1.106h-.252a1.222,1.222,0,0,1-.216.647,1.024,1.024,0,0,1-.5.342,2.971,2.971,0,0,1-.819.126q-.495.018-1.16.018h-.823c-.522,0-.745-.073-.872-.208a2.3,2.3,0,0,1-.178-1.222c0-.563,0-1.3,0-1.3a5.426,5.426,0,0,1,.09-1.124.966.966,0,0,1,.387-.611,1.727,1.727,0,0,1,.845-.252q.548-.045,1.466-.045a4.83,4.83,0,0,1,1.376.162,2.426,2.426,0,0,1,.854.432,2.029,2.029,0,0,1,.513.638q.189.369.369.8l.2-.018q-.018-.341-.036-.782t-.018-.8q0-.4.027-.863t.081-.827q-.324.054-.765.09t-1.061.054q-.621.018-1.448.027t-1.906.009h-2.429q-.665,0-1.3-.009t-1.142-.009v.288a2.9,2.9,0,0,1,.962.252,1.312,1.312,0,0,1,.54.495,1.958,1.958,0,0,1,.243.791,10.177,10.177,0,0,1,.054,1.124v7.984a10.177,10.177,0,0,1-.054,1.124,2.036,2.036,0,0,1-.243.8,1.35,1.35,0,0,1-.54.512,2.727,2.727,0,0,1-.962.261v.252q.558-.018,1.224-.027l1.367-.018q.7-.009,1.367-.009h1.224q1.78,0,2.95.027a12.057,12.057,0,0,1,1.925.171q.054-.324.153-.711t.216-.791q.117-.4.27-.791a7.309,7.309,0,0,1,.333-.728l-.18-.108a7,7,0,0,1-.611.755" transform="translate(-140.696 -35.119)" fill="#040504"/>
    <path id="Path_755" data-name="Path 755" d="M252.714,54.15a5.373,5.373,0,0,0-1.079-.8q-.6-.341-1.223-.647t-1.223-.594a6.25,6.25,0,0,1-1.08-.647,3.126,3.126,0,0,1-.764-.809,1.957,1.957,0,0,1-.288-1.079,2.156,2.156,0,0,1,.837-1.888,3.763,3.763,0,0,1,2.222-.593,2.242,2.242,0,0,1,1.529.449,1.872,1.872,0,0,1,.576,1.295h.306l.162-2.571a3.8,3.8,0,0,0-.828-.216,6.5,6.5,0,0,0-.989-.072,9.578,9.578,0,0,0-2.438.278,5.553,5.553,0,0,0-1.772.782,3.374,3.374,0,0,0-1.088,1.214,3.326,3.326,0,0,0-.369,1.556,3.6,3.6,0,0,0,.279,1.484,3.5,3.5,0,0,0,.747,1.079,5.09,5.09,0,0,0,1.052.791q.584.333,1.2.621t1.206.584a6,6,0,0,1,1.052.674,3.03,3.03,0,0,1,.747.872,2.441,2.441,0,0,1,.279,1.214,1.755,1.755,0,0,1-.386,1.187,2.6,2.6,0,0,1-.944.693,4.13,4.13,0,0,1-1.169.315,9.184,9.184,0,0,1-1.061.072,5.962,5.962,0,0,1-1.008-.072,1.607,1.607,0,0,1-.692-.279,1.634,1.634,0,0,1-.467-.567,3.751,3.751,0,0,1-.315-.935h-.306l-.126,2.518a6.006,6.006,0,0,0,1.286.387,7.841,7.841,0,0,0,1.466.135,12.255,12.255,0,0,0,2.015-.171A5.91,5.91,0,0,0,251.9,59.8a3.784,3.784,0,0,0,1.34-1.2,3.312,3.312,0,0,0,.522-1.924,3.4,3.4,0,0,0-.288-1.456,3.592,3.592,0,0,0-.765-1.07" transform="translate(-184.102 -34.523)" fill="#040504"/>
    <path id="Path_756" data-name="Path 756" d="M439.149,47.456H438.5q-.27,0-.522-.009l-.539-.018q-.288-.009-.7-.009v.324a4.026,4.026,0,0,1,.864.108,1.632,1.632,0,0,1,.54.234.81.81,0,0,1,.279.333,1.012,1.012,0,0,1,.081.4,1.83,1.83,0,0,1-.1.558q-.1.306-.306.773t-.54,1.142q-.334.674-.8,1.654t-1.07,2.311q-.6,1.331-1.358,3.093-1.061-2.661-1.808-4.433t-1.214-2.868q-.468-1.1-.693-1.618a2.264,2.264,0,0,1-.225-.719,1.666,1.666,0,0,1,.036-.35.533.533,0,0,1,.18-.3,1.113,1.113,0,0,1,.414-.207,3.649,3.649,0,0,1,.737-.117V47.42q-.4,0-.657.009l-.485.018c-.15.006-.309.009-.476.009h-.648q-.809,0-1.628-.009t-1.61-.027v.324a2.218,2.218,0,0,1,.854.216,1.985,1.985,0,0,1,.62.5,3.389,3.389,0,0,1,.477.782q.206.459.459,1.052.575,1.439,1.16,2.76t1.2,2.671q.611,1.349,1.25,2.8t1.322,3.138l.611-.036q.612-1.366,1.3-2.815t1.349-2.832q.665-1.385,1.277-2.635t1.106-2.23q.494-.979.836-1.627t.45-.828a2.761,2.761,0,0,1,.522-.584,2.039,2.039,0,0,1,1.079-.369V47.42q-.684.018-1.457.027t-1.511.009" transform="translate(-320.035 -35.607)" fill="#040504"/>
    <path id="Path_757" data-name="Path 757" d="M562.877,59.88a8.041,8.041,0,0,1-.8-.711q-.423-.423-.98-1.034l-2.968-3.219a5.721,5.721,0,0,0,1.655-.62,4.907,4.907,0,0,0,1.259-1.016,4.408,4.408,0,0,0,.8-1.3,4.031,4.031,0,0,0,.278-1.484,2.99,2.99,0,0,0-1.385-2.67,7.413,7.413,0,0,0-4.047-.908c-.24,0-.5.009-.783.027l-.854.054c-.288.018-.564.034-.827.045s-.5.018-.7.018q-.684,0-1.448-.009t-1.448-.009v.287a2.9,2.9,0,0,1,.962.252,1.313,1.313,0,0,1,.54.495,1.954,1.954,0,0,1,.242.791,10.1,10.1,0,0,1,.054,1.124v7.787a10.86,10.86,0,0,1-.054,1.151,2.4,2.4,0,0,1-.242.863,1.471,1.471,0,0,1-.54.575,2.375,2.375,0,0,1-.962.288V60.9q.666-.018,1.412-.027t1.43-.009q.684,0,1.457.009t1.457.027v-.252a2.593,2.593,0,0,1-.99-.279,1.445,1.445,0,0,1-.558-.566,2.28,2.28,0,0,1-.252-.863,11.139,11.139,0,0,1-.054-1.169v-2.23a.558.558,0,0,1,.1-.336.429.429,0,0,1,.325-.132h.9q.737.7,1.61,1.628t1.664,1.807q.791.881,1.385,1.547t.755.827q.306-.018.693-.018h.585q.251,0,.8.009t1.124.045l.072-.252a4.436,4.436,0,0,1-.909-.315,4.559,4.559,0,0,1-.765-.476m-7.81-5.953c.021,0,.019,0,0,0m1.137,0h-1.138a.643.643,0,0,1-.375-.162.726.726,0,0,1-.16-.548V50.295a8.522,8.522,0,0,1,.063-1.16,1.322,1.322,0,0,1,.27-.683,1.013,1.013,0,0,1,.576-.324,4.738,4.738,0,0,1,.98-.081,4.411,4.411,0,0,1,1.745.3,3.038,3.038,0,0,1,1.07.728,2.5,2.5,0,0,1,.539.917,2.879,2.879,0,0,1,.153.846,3.124,3.124,0,0,1-.288,1.394,2.685,2.685,0,0,1-.782.962,3.3,3.3,0,0,1-1.179.557,5.774,5.774,0,0,1-1.475.18" transform="translate(-413.418 -35.227)" fill="#040504"/>
    <path id="Path_758" data-name="Path 758" d="M617.292,47.5q-.765.009-1.448.009t-1.25-.009q-.567-.009-1.25-.009v.288q1.259.162,1.259.791a1.665,1.665,0,0,1-.225.738q-.225.431-.621,1.1l-2.213,3.7-1.853-3.7q-.342-.683-.648-1.169a1.67,1.67,0,0,1-.306-.666.589.589,0,0,1,.27-.521,2.328,2.328,0,0,1,.917-.27v-.288q-.684,0-1.349.009t-1.349.009q-.684,0-1.448-.009t-1.448-.009v.288a6.9,6.9,0,0,1,.926.18,2.239,2.239,0,0,1,.719.351,3.047,3.047,0,0,1,.639.656,9.965,9.965,0,0,1,.665,1.061l2.986,5.538V58.39a10.2,10.2,0,0,1-.054,1.124,2.031,2.031,0,0,1-.243.8,1.349,1.349,0,0,1-.54.512,2.733,2.733,0,0,1-.962.261v.252q.665-.018,1.412-.027t1.43-.009q.683,0,1.457.009t1.457.027v-.252a3.015,3.015,0,0,1-.989-.252,1.331,1.331,0,0,1-.558-.5,1.931,1.931,0,0,1-.252-.8,10.3,10.3,0,0,1-.054-1.142V55.6l2.824-5a10.143,10.143,0,0,1,.9-1.376,4.325,4.325,0,0,1,.827-.809,2.946,2.946,0,0,1,.854-.431,6.157,6.157,0,0,1,.963-.207v-.288q-.684,0-1.448.009" transform="translate(-453.74 -35.661)" fill="#040504"/>
    <path id="Path_759" data-name="Path 759" d="M325.412,6.748c-1.17-2.629-1.368-4.757-.208-6.748-.6.42-2.713,3.176-2.345,5.821.516,3.711,3.939,9.487,3.7,13.711a21.961,21.961,0,0,1-1.6,7.582,10.941,10.941,0,0,0,2.579-2.317,8.258,8.258,0,0,0,2.227-5.644c.148-5.258-2.628-8.551-4.344-12.405" transform="translate(-242.374)" fill="#040504"/>
    <path id="Path_760" data-name="Path 760" d="M314.2,36.031a4.619,4.619,0,0,0-1.446,4.271c.374,2.9,4.195,6.971,3.915,10.468a9.953,9.953,0,0,0-.432-7.9c-1.854-3.866-2.3-5.529-2.038-6.84" transform="translate(-234.78 -27.055)" fill="#040504"/>
    <path id="Path_761" data-name="Path 761" d="M309.508,75.589a8.872,8.872,0,0,1-1.406-2.182,9.257,9.257,0,0,0,1.222,5.862c1.306,2.137,2.246,2.673,2.98,2.979a10.934,10.934,0,0,0-.8-4.275,12.673,12.673,0,0,0-2-2.385" transform="translate(-231.285 -55.12)" fill="#040504"/>
    <path id="Path_762" data-name="Path 762" d="M148.262,132.638a3.689,3.689,0,0,0-2.168.634l.445.757a2.656,2.656,0,0,1,1.486-.511c.8,0,1.2.379,1.2,1.013v.151H147.7c-1.212.009-1.9.6-1.9,1.514a1.6,1.6,0,0,0,1.77,1.562,2.043,2.043,0,0,0,1.666-.663v.615h1.07l-.01-3.3c-.009-1.108-.738-1.77-2.035-1.77m.966,3.3c-.057.549-.653.956-1.43.956-.606,0-.975-.293-.975-.748,0-.483.331-.672,1.041-.672h1.363Z" transform="translate(-109.468 -99.595)" fill="#040504"/>
    <path id="Path_763" data-name="Path 763" d="M177.365,133.679v-1h-1.089v5.036h1.089V135.08a1.525,1.525,0,0,1,1.742-1.4v-1.041a1.832,1.832,0,0,0-1.742,1.041" transform="translate(-132.35 -99.595)" fill="#040504"/>
    <path id="Path_764" data-name="Path 764" d="M199.042,133.295c-.36,0-.559-.255-.559-.852V130.2h1.487v-.814h-1.487V128H197.4v4.628a1.446,1.446,0,0,0,1.439,1.647,2.428,2.428,0,0,0,1.212-.369l-.275-.833a1.661,1.661,0,0,1-.738.218" transform="translate(-148.213 -96.115)" fill="#040504"/>
    <path id="Path_765" data-name="Path 765" d="M219.28,124.394a.648.648,0,1,0,.634.653.627.627,0,0,0-.634-.653" transform="translate(-164.162 -93.405)" fill="#040504"/>
    <rect id="Rectangle_76" data-name="Rectangle 76" width="1.079" height="5.035" transform="translate(54.579 33.081)" fill="#040504"/>
    <path id="Path_766" data-name="Path 766" d="M235.476,133.973c0-.36.312-.5.738-.5a2.963,2.963,0,0,1,1.449.445l.4-.8a3.184,3.184,0,0,0-1.761-.511c-.966,0-1.856.435-1.856,1.458-.01,1.817,2.642,1.24,2.642,2.272,0,.379-.36.54-.824.54a2.745,2.745,0,0,1-1.685-.625l-.388.776a3.115,3.115,0,0,0,2.026.7c1.013,0,1.931-.464,1.931-1.5.009-1.827-2.67-1.325-2.67-2.253" transform="translate(-175.831 -99.566)" fill="#040504"/>
    <path id="Path_767" data-name="Path 767" d="M261.8,132.638a3.69,3.69,0,0,0-2.168.634l.445.757a2.657,2.657,0,0,1,1.486-.511c.8,0,1.2.379,1.2,1.013v.151h-1.524c-1.212.009-1.9.6-1.9,1.514a1.6,1.6,0,0,0,1.77,1.562,2.043,2.043,0,0,0,1.666-.663v.615h1.07l-.01-3.3c-.009-1.108-.738-1.77-2.035-1.77m.966,3.3c-.057.549-.653.956-1.43.956-.606,0-.975-.293-.975-.748,0-.483.331-.672,1.041-.672h1.363Z" transform="translate(-194.718 -99.595)" fill="#040504"/>
    <path id="Path_768" data-name="Path 768" d="M292.915,132.638a1.9,1.9,0,0,0-1.856,1v-.965h-1.089v5.036h1.089v-2.679a1.411,1.411,0,0,1,1.43-1.372,1.122,1.122,0,0,1,1.212,1.221v2.83h1.089v-3.133a1.76,1.76,0,0,0-1.875-1.94" transform="translate(-217.714 -99.595)" fill="#040504"/>
    <path id="Path_769" data-name="Path 769" d="M343.992,138.073c0,.483-.265.681-.6.681a1.156,1.156,0,0,1-.644-.227l-.36.843a1.787,1.787,0,0,0,1.051.341,1.6,1.6,0,0,0,1.628-1.741v-5.177h-1.079Z" transform="translate(-257.072 -99.71)" fill="#040504"/>
    <path id="Path_770" data-name="Path 770" d="M348.983,124.356a.663.663,0,1,0,.672.662.641.641,0,0,0-.672-.662" transform="translate(-261.523 -93.376)" fill="#040504"/>
    <path id="Path_771" data-name="Path 771" d="M365.914,132.638a2.556,2.556,0,1,0,.028,5.111,2.741,2.741,0,0,0,2.083-.852l-.577-.615a1.959,1.959,0,0,1-1.42.587,1.533,1.533,0,0,1-1.562-1.259h3.806c.133-1.817-.587-2.972-2.357-2.972m-1.468,2.177a1.427,1.427,0,0,1,1.477-1.306,1.294,1.294,0,0,1,1.4,1.306Z" transform="translate(-272.82 -99.595)" fill="#040504"/>
    <path id="Path_772" data-name="Path 772" d="M396.406,136.747l-1.278-3.957H394l-1.269,3.957-1.306-3.957h-1.117l1.856,5.036h1.117l1.278-3.729,1.278,3.729h1.127l1.837-5.036h-1.108Z" transform="translate(-293.049 -99.709)" fill="#040504"/>
    <path id="Path_773" data-name="Path 773" d="M433.363,132.638a2.556,2.556,0,1,0,.028,5.111,2.741,2.741,0,0,0,2.083-.852l-.577-.615a1.958,1.958,0,0,1-1.42.587,1.533,1.533,0,0,1-1.562-1.259h3.806c.133-1.817-.587-2.972-2.358-2.972m-1.467,2.177a1.427,1.427,0,0,1,1.477-1.306,1.293,1.293,0,0,1,1.4,1.306Z" transform="translate(-323.462 -99.595)" fill="#040504"/>
    <rect id="Rectangle_77" data-name="Rectangle 77" width="1.089" height="7.023" transform="translate(114.986 31.093)" fill="#040504"/>
    <path id="Path_774" data-name="Path 774" d="M478.949,133.679v-1H477.86v5.036h1.089V135.08a1.526,1.526,0,0,1,1.742-1.4v-1.041a1.832,1.832,0,0,0-1.742,1.041" transform="translate(-358.783 -99.595)" fill="#040504"/>
    <path id="Path_775" data-name="Path 775" d="M499.188,136.6l-1.505-3.815h-1.127l2.083,4.96-.17.378a.82.82,0,0,1-.767.558,1.064,1.064,0,0,1-.653-.246l-.464.843a1.7,1.7,0,0,0,1.165.426,1.68,1.68,0,0,0,1.638-1.192l2.291-5.727h-1.089Z" transform="translate(-372.82 -99.709)" fill="#040504"/>
  </g>
</svg>
