<svg xmlns="http://www.w3.org/2000/svg" width="11.747" height="19" viewBox="0 0 11.747 19">
  <g id="Web-Icon_Location-Small-Size-Use" transform="translate(-11.7 -3.7)">
    <path id="Path_2424" data-name="Path 2424" d="M23.645,10.3A5.323,5.323,0,0,0,13,10.3c0,2.94,5.478,11.981,5.478,11.981S23.6,13.418,23.645,10.3Z" transform="translate(-0.727 -0.727)" fill="#fff" fill-rule="evenodd"/>
    <g id="Group_6888" data-name="Group 6888" transform="translate(11.7 3.7)">
      <path id="Path_2425" data-name="Path 2425" d="M17.707,22.7l-.489-.845C16.639,20.92,11.7,12.6,11.7,9.574A5.884,5.884,0,0,1,21.756,5.435a5.785,5.785,0,0,1,1.691,4.138h0C23.4,12.822,18.419,21.5,18.2,21.855ZM17.574,4.812a4.729,4.729,0,0,0-4.717,4.761c0,2.047,3.159,7.876,4.85,10.813,1.6-2.892,4.583-8.632,4.583-10.857a4.71,4.71,0,0,0-4.717-4.717Z" transform="translate(-11.7 -3.7)" fill="#363636"/>
      <circle id="Ellipse_46" data-name="Ellipse 46" cx="2.601" cy="2.601" r="2.601" transform="translate(3.273 3.438)" fill="#363636"/>
    </g>
  </g>
</svg>
