<svg xmlns="http://www.w3.org/2000/svg" width="20.327" height="19" viewBox="0 0 20.327 19">
  <g id="Web-Icon_My-Account-Not-Signed-In" transform="translate(-3.5 -5)">
    <g id="Group_6889" data-name="Group 6889" transform="translate(9.336 5)">
      <path id="Path_2426" data-name="Path 2426" d="M20.128,15.749a2.419,2.419,0,0,0,1.69-.61A6.667,6.667,0,0,0,24.493,10.4a4.733,4.733,0,0,0-.469-2.722A4.455,4.455,0,0,0,20.128,5a4.586,4.586,0,0,0-3.943,2.629,4.791,4.791,0,0,0-.422,2.722,6.465,6.465,0,0,0,2.629,4.741A2.52,2.52,0,0,0,20.128,15.749Z" transform="translate(-15.729 -5)" fill="#fff" fill-rule="evenodd"/>
      <path id="Path_2427" data-name="Path 2427" d="M20.128,6.22a3.338,3.338,0,0,1,2.816,1.924,3.433,3.433,0,0,1,.329,2.112A5.363,5.363,0,0,1,21.019,14.2a1.375,1.375,0,0,1-1.784,0,5.169,5.169,0,0,1-2.206-3.943,3.814,3.814,0,0,1,.282-2.112A3.251,3.251,0,0,1,20.128,6.22m0-1.22a4.586,4.586,0,0,0-3.943,2.629,4.791,4.791,0,0,0-.422,2.722,6.465,6.465,0,0,0,2.629,4.741,2.586,2.586,0,0,0,1.69.61,2.419,2.419,0,0,0,1.69-.61,6.667,6.667,0,0,0,2.675-4.741,4.733,4.733,0,0,0-.469-2.722A4.368,4.368,0,0,0,20.128,5Z" transform="translate(-15.729 -5)" fill="#363636"/>
    </g>
    <g id="Group_6890" data-name="Group 6890" transform="translate(3.5 16.114)">
      <path id="Path_2428" data-name="Path 2428" d="M22.612,36.175a1.477,1.477,0,0,0,1.374-1.549V34.3c0-.845-.426-3.192-3.98-4.037-1.848-.422-2.8-2.065-3.033-1.878a4.531,4.531,0,0,1-3.08,1.549h0a4.739,4.739,0,0,1-3.08-1.549c-.237-.188-1.185,1.455-3.033,1.878-3.554.8-3.98,3.192-3.98,4.037v.376a1.477,1.477,0,0,0,1.374,1.549H22.612Z" transform="translate(-3.659 -28.336)" fill="#fff" fill-rule="evenodd"/>
      <path id="Path_2429" data-name="Path 2429" d="M16.815,29.943a6.059,6.059,0,0,0,2.7,1.5c2.8.657,3.032,2.347,3.032,2.816v.376c0,.188-.095.329-.142.329H4.874c-.047,0-.142-.094-.142-.329v-.376c0-.516.237-2.206,3.032-2.816a6.059,6.059,0,0,0,2.7-1.5,5.158,5.158,0,0,0,3.08,1.22h.095a5.492,5.492,0,0,0,3.175-1.22m0-1.643h0a5.032,5.032,0,0,1-3.127,1.6h-.095a4.739,4.739,0,0,1-3.08-1.549h-.047c-.284,0-1.232,1.5-2.985,1.878-3.554.8-3.98,3.192-3.98,4.037v.376a1.477,1.477,0,0,0,1.374,1.549H22.406a1.477,1.477,0,0,0,1.374-1.549v-.376c0-.845-.426-3.192-3.98-4.037C18.046,29.8,17.1,28.3,16.815,28.3Z" transform="translate(-3.5 -28.3)" fill="#363636"/>
    </g>
  </g>
</svg>
