<svg xmlns="http://www.w3.org/2000/svg" width="16.862" height="16.351" viewBox="0 0 16.862 16.351">
  <g id="Web-Icon_Search" transform="translate(-3.6 -4.8)">
    <circle id="Ellipse_47" data-name="Ellipse 47" cx="5.581" cy="5.581" r="5.581" transform="translate(3.6 4.839)" fill="#fff"/>
    <path id="Path_2432" data-name="Path 2432" d="M19.994,18.164,14.02,13.251a5.682,5.682,0,0,0,.786-3.144A5.569,5.569,0,0,0,9.224,4.839V6.215a4.22,4.22,0,0,1,4.206,3.97,4.049,4.049,0,0,1-1.061,3.027A4.092,4.092,0,0,1,9.46,14.587H9.224a4.209,4.209,0,0,1-.236-8.412h.236V4.8H8.91A5.607,5.607,0,0,0,9.264,16h.314a5.455,5.455,0,0,0,2.751-.9l5.188,5.581a1.6,1.6,0,0,0,1.179.472h.079a1.908,1.908,0,0,0,1.218-.511,1.724,1.724,0,0,0,.511-1.218A1.926,1.926,0,0,0,19.994,18.164Z" transform="translate(-0.043 0)" fill="#363636"/>
  </g>
</svg>
