<svg xmlns="http://www.w3.org/2000/svg" width="20.136" height="17.896" viewBox="0 0 20.136 17.896">
  <g id="Group_6947" data-name="Group 6947" transform="translate(-4868 -7412)">
    <path id="Path_2439" data-name="Path 2439" d="M4878.068,7429.024l4.285-3.756,2.961-3.387,2.016-3.252v-2.411l-.627-1.61-1.389-1.159-1.826-.815-1.792.458-1.872,1.516-.939,1.61-.816.584-1.838-2.194-1.814-1.516-1.755-.458-2.012.815-1.26,1.159-.639,1.61v1.06l.639,1.766,1.954,3.288,3.677,3.827Z" fill="#fff"/>
    <g id="Web-Icon_Wish-List-Heart-Outline" transform="translate(4862.095 7403.4)">
      <path id="Path_2438" data-name="Path 2438" d="M21.219,10.179h0a3.254,3.254,0,0,1,2.474,1.158,3.9,3.9,0,0,1,.632,3.316c-.526,2.632-5.053,7.053-8.369,9.79-3.316-2.79-7.843-7.316-8.369-9.843a3.75,3.75,0,0,1,.632-3.263,3.174,3.174,0,0,1,2.474-1.158,1.457,1.457,0,0,1,.474.053c1.526.263,2.263,1.263,3.053,2.421.158.211.316.474.474.684l1.263,1.684,1.263-1.684c.158-.263.368-.474.526-.737.947-1.316,1.579-2.158,3-2.369.158,0,.316-.053.474-.053m0-1.579a3,3,0,0,0-.684.053c-2.579.421-3.474,2.263-4.579,3.737-1-1.369-1.948-3.316-4.579-3.737a3,3,0,0,0-.684-.053c-2.737,0-5.474,2.369-4.632,6.369.895,4.421,9.9,11.527,9.9,11.527s9.053-7,9.948-11.527c.79-3.948-1.948-6.369-4.685-6.369Z" transform="translate(0)" fill="#373737"/>
    </g>
  </g>
</svg>
